<svg width="32" height="32" viewBox="0 0 32 32" fill="none" xmlns="http://www.w3.org/2000/svg">
<g id="facebook-messenger-3" clip-path="url(#clip0_4853_17897)">
<g id="Group">
<path id="Vector" fill-rule="evenodd" clip-rule="evenodd" d="M16 0C7.04797 0 0.110168 6.55073 0.110168 15.398C0.110168 20.0259 2.00924 24.0248 5.10092 26.7875C5.35992 27.0207 5.51652 27.3433 5.52931 27.6914L5.61567 30.5148C5.64443 31.4155 6.57478 32 7.3997 31.6391L10.5521 30.2497C10.8188 30.1317 11.118 30.1092 11.3993 30.1859C12.8476 30.5851 14.3918 30.7959 16 30.7959C24.952 30.7959 31.8898 24.2451 31.8898 15.3979C31.8898 6.55073 24.952 0 16 0Z" fill="url(#paint0_linear_4853_17897)"/>
<path id="Vector_2" fill-rule="evenodd" clip-rule="evenodd" d="M6.45976 19.9022L11.1275 12.5051C11.8693 11.3297 13.4614 11.0359 14.574 11.8695L18.2859 14.6514C18.4517 14.7754 18.6533 14.8421 18.8603 14.8415C19.0673 14.8409 19.2686 14.7731 19.4337 14.6483L24.4469 10.8474C25.115 10.3397 25.9911 11.1414 25.5402 11.8504L20.8756 19.2443C20.1339 20.4197 18.5417 20.7136 17.4291 19.8799L13.7173 17.098C13.5514 16.9741 13.3498 16.9074 13.1428 16.9079C12.9358 16.9085 12.7346 16.9763 12.5695 17.1012L7.55313 20.9052C6.88497 21.413 6.00888 20.6113 6.45976 19.9022Z" fill="white"/>
</g>
</g>
<defs>
<linearGradient id="paint0_linear_4853_17897" x1="6356.03" y1="0" x2="6356.03" y2="12787.1" gradientUnits="userSpaceOnUse">
<stop stop-color="#00B2FF"/>
<stop offset="1" stop-color="#006AFF"/>
</linearGradient>
<clipPath id="clip0_4853_17897">
<rect width="32" height="32" fill="white"/>
</clipPath>
</defs>
</svg>
