<svg width="180" height="46" viewBox="0 0 180 46" fill="none" xmlns="http://www.w3.org/2000/svg">
<g id="Group 286">
<path id="Subtract" fill-rule="evenodd" clip-rule="evenodd" d="M38.5884 43.0588C37.062 44.2289 35.391 45.2198 33.6068 46H14.3932C13.1092 45.4385 11.8838 44.768 10.7288 44H28V42L38.5884 43.0588ZM40.669 41.2669L28 40L7.5352 41.4618C6.90788 40.87 6.31244 40.2449 5.75172 39.5892L28 38V36L42.7725 38.9545C42.1217 39.7703 41.4189 40.5428 40.669 41.2669ZM44.0417 37.2083L28 34L4.09625 37.4148C3.69467 36.8202 3.31904 36.2065 2.97098 35.5756L28 32V30L45.2457 35.1737C44.8772 35.873 44.4751 36.5519 44.0417 37.2083ZM46.0792 33.4237L28 28L1.98587 33.5744C1.72319 32.9713 1.48456 32.3553 1.27122 31.7276L28 26V24L46.7985 31.5194C46.5851 32.1668 46.3449 32.802 46.0792 33.4237ZM47.3129 29.7252L28 22L0.705183 29.7985C0.551236 29.178 0.421432 28.548 0.316826 27.9095L28 20V18L47.6934 27.8467C47.5911 28.4815 47.4639 29.108 47.3129 29.7252ZM47.9211 25.9605L28 16L0.079813 25.9715C0.0269491 25.3213 0 24.6638 0 24L28 14V12L48 24C48 24.6601 47.9734 25.3139 47.9211 25.9605ZM47.9135 21.9481L28 10L0.0851874 21.9635C1.11885 9.66182 11.4311 0 24 0C36.5637 0 46.8726 9.65376 47.9135 21.9481Z" fill="#005BD4"/>
<g id="Caribbean">
<path d="M69.84 26.6667H72.8568C72.7763 27.707 72.4801 28.6297 71.9682 29.4349C71.4563 30.2329 70.7432 30.8599 69.8291 31.316C68.9149 31.772 67.8069 32 66.5052 32C65.5032 32 64.6001 31.829 63.7956 31.487C62.9984 31.1378 62.3147 30.6426 61.7442 30.0013C61.1811 29.3529 60.7496 28.5763 60.4498 27.6713C60.1499 26.7593 60 25.7368 60 24.6039V23.4175C60 22.2846 60.1536 21.2621 60.4607 20.35C60.7679 19.438 61.2067 18.6613 61.7771 18.02C62.3549 17.3716 63.046 16.8729 63.8504 16.5237C64.6622 16.1746 65.5691 16 66.571 16C67.8727 16 68.9734 16.2351 69.8729 16.7054C70.7725 17.1686 71.4709 17.8063 71.9682 18.6186C72.4655 19.4309 72.7653 20.3643 72.8677 21.4188H69.851C69.7925 20.7633 69.6462 20.2075 69.4122 19.7515C69.1855 19.2955 68.8418 18.9499 68.381 18.7148C67.9276 18.4725 67.3243 18.3514 66.571 18.3514C65.9859 18.3514 65.4703 18.4582 65.0242 18.672C64.5854 18.8858 64.2198 19.2064 63.9272 19.6339C63.6347 20.0543 63.4153 20.5816 63.269 21.2158C63.1228 21.8428 63.0496 22.5696 63.0496 23.3961V24.6039C63.0496 25.3948 63.1155 26.1038 63.2471 26.7308C63.3787 27.3578 63.5835 27.8887 63.8614 28.3233C64.1393 28.758 64.4977 29.0893 64.9365 29.3173C65.3753 29.5453 65.8982 29.6593 66.5052 29.6593C67.2438 29.6593 67.8435 29.5453 68.3042 29.3173C68.7723 29.0893 69.127 28.7544 69.3683 28.3126C69.617 27.8709 69.7742 27.3222 69.84 26.6667Z" fill="#005BD4"/>
<path d="M81.5449 18.5865L76.9924 31.7862H73.8002L79.7678 16.2244H81.8082L81.5449 18.5865ZM85.3515 31.7862L80.777 18.5865L80.5028 16.2244H82.5542L88.5547 31.7862H85.3515ZM85.1431 26.004V28.3233H76.5756V26.004H85.1431Z" fill="#005BD4"/>
<path d="M90.2002 16.2244H96.0033C97.2173 16.2244 98.2594 16.4026 99.1297 16.7589C100 17.1151 100.669 17.6424 101.137 18.3407C101.605 19.039 101.839 19.8976 101.839 20.9165C101.839 21.7217 101.693 22.4199 101.4 23.0114C101.108 23.6028 100.695 24.098 100.161 24.497C99.6343 24.896 99.0127 25.2095 98.296 25.4375L97.3526 25.9078H92.2296L92.2077 23.5885H96.0362C96.6578 23.5885 97.1734 23.4816 97.583 23.2679C97.9925 23.0541 98.2997 22.7584 98.5044 22.3808C98.7165 22.0031 98.8226 21.572 98.8226 21.0875C98.8226 20.5674 98.7202 20.1185 98.5154 19.7408C98.3106 19.356 97.9998 19.0603 97.583 18.8537C97.1661 18.6471 96.6395 18.5438 96.0033 18.5438H93.2169V31.7862H90.2002V16.2244ZM99.2175 31.7862L95.5206 24.8176L98.7129 24.8069L102.454 31.6366V31.7862H99.2175Z" fill="#005BD4"/>
<path d="M107.697 16.2244V31.7862H104.681V16.2244H107.697Z" fill="#005BD4"/>
<path d="M117.077 24.8497H112.996L112.974 22.7762H116.473C117.073 22.7762 117.574 22.6943 117.976 22.5304C118.378 22.3665 118.682 22.1278 118.887 21.8143C119.099 21.5008 119.205 21.1196 119.205 20.6707C119.205 20.1719 119.106 19.7658 118.908 19.4522C118.718 19.1387 118.419 18.9107 118.009 18.7682C117.599 18.6186 117.08 18.5438 116.451 18.5438H113.972V31.7862H110.955V16.2244H116.451C117.358 16.2244 118.166 16.31 118.876 16.481C119.592 16.6448 120.199 16.9014 120.697 17.2505C121.194 17.5996 121.571 18.0379 121.826 18.5651C122.09 19.0924 122.221 19.7194 122.221 20.4462C122.221 21.0875 122.068 21.6789 121.761 22.2204C121.461 22.7548 120.996 23.1895 120.368 23.5244C119.746 23.8593 118.956 24.0517 117.998 24.1015L117.077 24.8497ZM116.945 31.7862H112.107L113.369 29.4776H116.945C117.545 29.4776 118.038 29.3814 118.426 29.189C118.821 28.9967 119.113 28.733 119.303 28.3981C119.501 28.0561 119.6 27.6642 119.6 27.2224C119.6 26.7379 119.512 26.3175 119.336 25.9613C119.168 25.605 118.898 25.3307 118.525 25.1383C118.159 24.9459 117.676 24.8497 117.077 24.8497H113.939L113.961 22.7762H117.954L118.645 23.5778C119.567 23.5849 120.316 23.7631 120.894 24.1122C121.479 24.4614 121.911 24.9103 122.189 25.4589C122.466 26.0076 122.605 26.599 122.605 27.2331C122.605 28.2307 122.382 29.0679 121.936 29.7448C121.497 30.4217 120.854 30.9312 120.005 31.2732C119.164 31.6152 118.144 31.7862 116.945 31.7862Z" fill="#005BD4"/>
<path d="M131.337 24.8497H127.257L127.235 22.7762H130.734C131.334 22.7762 131.835 22.6943 132.237 22.5304C132.639 22.3665 132.943 22.1278 133.147 21.8143C133.36 21.5008 133.466 21.1196 133.466 20.6707C133.466 20.1719 133.367 19.7658 133.169 19.4522C132.979 19.1387 132.679 18.9107 132.27 18.7682C131.86 18.6186 131.341 18.5438 130.712 18.5438H128.233V31.7862H125.216V16.2244H130.712C131.619 16.2244 132.427 16.31 133.136 16.481C133.853 16.6448 134.46 16.9014 134.957 17.2505C135.455 17.5996 135.831 18.0379 136.087 18.5651C136.351 19.0924 136.482 19.7194 136.482 20.4462C136.482 21.0875 136.329 21.6789 136.022 22.2204C135.722 22.7548 135.257 23.1895 134.628 23.5244C134.007 23.8593 133.217 24.0517 132.259 24.1015L131.337 24.8497ZM131.206 31.7862H126.368L127.63 29.4776H131.206C131.805 29.4776 132.299 29.3814 132.687 29.189C133.082 28.9967 133.374 28.733 133.564 28.3981C133.762 28.0561 133.861 27.6642 133.861 27.2224C133.861 26.7379 133.773 26.3175 133.597 25.9613C133.429 25.605 133.158 25.3307 132.785 25.1383C132.42 24.9459 131.937 24.8497 131.337 24.8497H128.2L128.222 22.7762H132.215L132.906 23.5778C133.828 23.5849 134.577 23.7631 135.155 24.1122C135.74 24.4614 136.172 24.9103 136.449 25.4589C136.727 26.0076 136.866 26.599 136.866 27.2331C136.866 28.2307 136.643 29.0679 136.197 29.7448C135.758 30.4217 135.115 30.9312 134.266 31.2732C133.425 31.6152 132.405 31.7862 131.206 31.7862Z" fill="#005BD4"/>
<path d="M150.063 29.4776V31.7862H141.572V29.4776H150.063ZM142.494 16.2244V31.7862H139.477V16.2244H142.494ZM148.955 22.648V24.9031H141.572V22.648H148.955ZM150.03 16.2244V18.5438H141.572V16.2244H150.03Z" fill="#005BD4"/>
<path d="M158.51 18.5865L153.957 31.7862H150.765L156.733 16.2244H158.773L158.51 18.5865ZM162.316 31.7862L157.742 18.5865L157.468 16.2244H159.519L165.52 31.7862H162.316ZM162.108 26.004V28.3233H153.541V26.004H162.108Z" fill="#005BD4"/>
<path d="M180 16.2244V31.7862H176.972L170.182 20.9913V31.7862H167.165V16.2244H170.182L176.994 27.0301V16.2244H180Z" fill="#005BD4"/>
</g>
<g id="Real estate MLS">
<path d="M60 38.107H62.6971C63.3088 38.107 63.8255 38.1961 64.247 38.3743C64.6723 38.5526 64.995 38.8164 65.2151 39.1658C65.4389 39.5116 65.5508 39.9376 65.5508 40.4439C65.5508 40.8004 65.4743 41.1266 65.3214 41.4225C65.1722 41.7148 64.9558 41.9643 64.6723 42.1711C64.3925 42.3743 64.0568 42.5258 63.6651 42.6257L63.3629 42.738H60.8281L60.817 41.8984H62.7306C63.1186 41.8984 63.4413 41.8342 63.6987 41.7059C63.9561 41.574 64.1501 41.3975 64.2806 41.1765C64.4112 40.9554 64.4765 40.7112 64.4765 40.4439C64.4765 40.1444 64.4149 39.8824 64.2918 39.6578C64.1687 39.4332 63.9747 39.2602 63.7099 39.139C63.4487 39.0143 63.1111 38.9519 62.6971 38.9519H61.0799V45.893H60V38.107ZM64.7618 45.893L62.781 42.3636L63.9057 42.3583L65.9145 45.8289V45.893H64.7618Z" fill="#005BD4"/>
<path d="M74.0711 45.0535V45.893H69.7569V45.0535H74.0711ZM69.9751 38.107V45.893H68.8952V38.107H69.9751ZM73.5003 41.4545V42.2941H69.7569V41.4545H73.5003ZM74.0151 38.107V38.9519H69.7569V38.107H74.0151Z" fill="#005BD4"/>
<path d="M80.258 38.7968L77.5609 45.893H76.4586L79.5641 38.107H80.2748L80.258 38.7968ZM82.5186 45.893L79.8159 38.7968L79.7992 38.107H80.5098L83.6265 45.893H82.5186ZM82.3787 43.0107V43.8556H77.8015V43.0107H82.3787Z" fill="#005BD4"/>
<path d="M91.4921 45.0535V45.893H87.4185V45.0535H91.4921ZM87.6312 38.107V45.893H86.5512V38.107H87.6312Z" fill="#005BD4"/>
<path d="M104.414 45.0535V45.893H100.1V45.0535H104.414ZM100.318 38.107V45.893H99.2384V38.107H100.318ZM103.844 41.4545V42.2941H100.1V41.4545H103.844ZM104.358 38.107V38.9519H100.1V38.107H104.358Z" fill="#005BD4"/>
<path d="M111.927 43.9251C111.927 43.7433 111.898 43.5829 111.838 43.4439C111.782 43.3012 111.681 43.1729 111.536 43.0588C111.394 42.9447 111.196 42.836 110.943 42.7326C110.693 42.6292 110.376 42.5241 109.991 42.4171C109.588 42.303 109.225 42.1765 108.9 42.0374C108.576 41.8948 108.298 41.7326 108.066 41.5508C107.835 41.369 107.658 41.1604 107.535 40.9251C107.412 40.6898 107.35 40.4207 107.35 40.1176C107.35 39.8146 107.415 39.5348 107.546 39.2781C107.677 39.0214 107.863 38.7986 108.106 38.6096C108.352 38.4171 108.645 38.2674 108.984 38.1604C109.324 38.0535 109.702 38 110.12 38C110.732 38 111.25 38.1123 111.676 38.3369C112.105 38.5579 112.431 38.8485 112.655 39.2086C112.879 39.5651 112.991 39.9465 112.991 40.3529H111.916C111.916 40.0606 111.851 39.8021 111.72 39.5775C111.59 39.3494 111.392 39.1711 111.127 39.0428C110.862 38.9109 110.527 38.8449 110.12 38.8449C109.736 38.8449 109.419 38.9002 109.169 39.0107C108.919 39.1212 108.732 39.2709 108.609 39.4599C108.49 39.6488 108.43 39.8645 108.43 40.107C108.43 40.2709 108.466 40.4207 108.536 40.5561C108.611 40.6881 108.725 40.8111 108.878 40.9251C109.034 41.0392 109.232 41.1444 109.471 41.2406C109.713 41.3369 110.003 41.4296 110.338 41.5187C110.801 41.6435 111.2 41.7825 111.536 41.9358C111.871 42.0891 112.147 42.262 112.364 42.4545C112.584 42.6435 112.746 42.8592 112.851 43.1016C112.959 43.3405 113.013 43.6114 113.013 43.9144C113.013 44.2317 112.946 44.5187 112.811 44.7754C112.677 45.0321 112.485 45.2513 112.235 45.4332C111.985 45.615 111.685 45.7558 111.334 45.8556C110.987 45.9519 110.599 46 110.17 46C109.794 46 109.422 45.9501 109.057 45.8503C108.695 45.7504 108.365 45.6007 108.066 45.4011C107.772 45.2014 107.535 44.9554 107.356 44.6631C107.18 44.3672 107.093 44.025 107.093 43.6364H108.167C108.167 43.9037 108.221 44.1337 108.329 44.3262C108.438 44.5152 108.585 44.672 108.771 44.7968C108.962 44.9216 109.176 45.0143 109.415 45.0749C109.657 45.1319 109.909 45.1604 110.17 45.1604C110.547 45.1604 110.866 45.1105 111.127 45.0107C111.388 44.9109 111.586 44.7683 111.72 44.5829C111.858 44.3975 111.927 44.1783 111.927 43.9251Z" fill="#005BD4"/>
<path d="M119.233 38.107V45.893H118.17V38.107H119.233ZM121.852 38.107V38.9519H115.557V38.107H121.852Z" fill="#005BD4"/>
<path d="M127.463 38.7968L124.766 45.893H123.663L126.769 38.107H127.479L127.463 38.7968ZM129.723 45.893L127.021 38.7968L127.004 38.107H127.715L130.831 45.893H129.723ZM129.583 43.0107V43.8556H125.006V43.0107H129.583Z" fill="#005BD4"/>
<path d="M136.039 38.107V45.893H134.976V38.107H136.039ZM138.658 38.107V38.9519H132.363V38.107H138.658Z" fill="#005BD4"/>
<path d="M146.876 45.0535V45.893H142.562V45.0535H146.876ZM142.78 38.107V45.893H141.7V38.107H142.78ZM146.305 41.4545V42.2941H142.562V41.4545H146.305ZM146.82 38.107V38.9519H142.562V38.107H146.82Z" fill="#005BD4"/>
<path d="M155.064 38.107H156.11L158.78 44.4545L161.443 38.107H162.495L159.182 45.893H158.366L155.064 38.107ZM154.723 38.107H155.646L155.797 42.8556V45.893H154.723V38.107ZM161.908 38.107H162.831V45.893H161.756V42.8556L161.908 38.107Z" fill="#005BD4"/>
<path d="M171.502 45.0535V45.893H167.429V45.0535H171.502ZM167.641 38.107V45.893H166.561V38.107H167.641Z" fill="#005BD4"/>
<path d="M178.914 43.9251C178.914 43.7433 178.885 43.5829 178.825 43.4439C178.769 43.3012 178.668 43.1729 178.523 43.0588C178.381 42.9447 178.183 42.836 177.93 42.7326C177.68 42.6292 177.363 42.5241 176.978 42.4171C176.576 42.303 176.212 42.1765 175.887 42.0374C175.563 41.8948 175.285 41.7326 175.054 41.5508C174.822 41.369 174.645 41.1604 174.522 40.9251C174.399 40.6898 174.337 40.4207 174.337 40.1176C174.337 39.8146 174.403 39.5348 174.533 39.2781C174.664 39.0214 174.85 38.7986 175.093 38.6096C175.339 38.4171 175.632 38.2674 175.971 38.1604C176.311 38.0535 176.689 38 177.107 38C177.719 38 178.237 38.1123 178.663 38.3369C179.092 38.5579 179.418 38.8485 179.642 39.2086C179.866 39.5651 179.978 39.9465 179.978 40.3529H178.903C178.903 40.0606 178.838 39.8021 178.707 39.5775C178.577 39.3494 178.379 39.1711 178.114 39.0428C177.849 38.9109 177.514 38.8449 177.107 38.8449C176.723 38.8449 176.406 38.9002 176.156 39.0107C175.906 39.1212 175.719 39.2709 175.596 39.4599C175.477 39.6488 175.417 39.8645 175.417 40.107C175.417 40.2709 175.453 40.4207 175.524 40.5561C175.598 40.6881 175.712 40.8111 175.865 40.9251C176.022 41.0392 176.219 41.1444 176.458 41.2406C176.7 41.3369 176.99 41.4296 177.325 41.5187C177.788 41.6435 178.187 41.7825 178.523 41.9358C178.859 42.0891 179.135 42.262 179.351 42.4545C179.571 42.6435 179.733 42.8592 179.838 43.1016C179.946 43.3405 180 43.6114 180 43.9144C180 44.2317 179.933 44.5187 179.799 44.7754C179.664 45.0321 179.472 45.2513 179.222 45.4332C178.972 45.615 178.672 45.7558 178.321 45.8556C177.974 45.9519 177.586 46 177.157 46C176.781 46 176.41 45.9501 176.044 45.8503C175.682 45.7504 175.352 45.6007 175.054 45.4011C174.759 45.2014 174.522 44.9554 174.343 44.6631C174.168 44.3672 174.08 44.025 174.08 43.6364H175.154C175.154 43.9037 175.208 44.1337 175.317 44.3262C175.425 44.5152 175.572 44.672 175.759 44.7968C175.949 44.9216 176.163 45.0143 176.402 45.0749C176.645 45.1319 176.896 45.1604 177.157 45.1604C177.534 45.1604 177.853 45.1105 178.114 45.0107C178.375 44.9109 178.573 44.7683 178.707 44.5829C178.845 44.3975 178.914 44.1783 178.914 43.9251Z" fill="#005BD4"/>
</g>
</g>
</svg>
