<svg width="25" height="24" viewBox="0 0 25 24" fill="none" xmlns="http://www.w3.org/2000/svg">
<g id="forward_media">
<mask id="mask0_4853_17396" style="mask-type:alpha" maskUnits="userSpaceOnUse" x="0" y="0" width="25" height="24">
<rect id="Bounding box" x="0.25" width="24" height="24" fill="#D9D9D9"/>
</mask>
<g mask="url(#mask0_4853_17396)">
<path id="forward_media_2" d="M12.25 22C11 22 9.82917 21.7625 8.7375 21.2875C7.64583 20.8125 6.69583 20.1708 5.8875 19.3625C5.07917 18.5542 4.4375 17.6042 3.9625 16.5125C3.4875 15.4208 3.25 14.25 3.25 13C3.25 11.75 3.4875 10.5792 3.9625 9.4875C4.4375 8.39583 5.07917 7.44583 5.8875 6.6375C6.69583 5.82917 7.64583 5.1875 8.7375 4.7125C9.82917 4.2375 11 4 12.25 4H12.4L10.85 2.45L12.25 1L16.25 5L12.25 9L10.85 7.55L12.4 6H12.25C10.3 6 8.64583 6.67917 7.2875 8.0375C5.92917 9.39583 5.25 11.05 5.25 13C5.25 14.95 5.92917 16.6042 7.2875 17.9625C8.64583 19.3208 10.3 20 12.25 20C14.2 20 15.8542 19.3208 17.2125 17.9625C18.5708 16.6042 19.25 14.95 19.25 13H21.25C21.25 14.25 21.0125 15.4208 20.5375 16.5125C20.0625 17.6042 19.4208 18.5542 18.6125 19.3625C17.8042 20.1708 16.8542 20.8125 15.7625 21.2875C14.6708 21.7625 13.5 22 12.25 22Z" fill="#005BD4"/>
</g>
</g>
</svg>
