<svg width="32" height="32" viewBox="0 0 32 32" fill="none" xmlns="http://www.w3.org/2000/svg">
<g id="Group 291">
<path id="Vector" d="M7.23282 29.5026L7.83215 29.8023C10.2759 31.2558 13.0697 32.0155 15.913 31.9998C24.6661 31.9798 31.8579 24.7709 31.8579 16.0179C31.8579 11.7877 30.1778 7.72526 27.1902 4.73064C24.2066 1.70507 20.1302 0 15.882 0C7.16889 0 0 7.1699 0 15.882C0 15.951 1.66067e-07 16.0189 0.00100149 16.0878C0.0272444 19.0499 0.855705 21.9495 2.3983 24.4783L2.79783 25.0776L1.19965 30.9709L7.23282 29.5026Z" fill="#00E676"/>
<path id="Vector_2" d="M24.8731 20.0121L23.7743 19.5127C23.7743 19.5127 22.1761 18.8134 21.1772 18.314C21.0774 18.314 20.9775 18.2141 20.8776 18.2141C20.6313 18.2202 20.3907 18.289 20.1784 18.4139C19.9656 18.5388 20.0785 18.5138 18.6801 20.112C18.5852 20.2988 18.3904 20.4156 18.1806 20.4116H18.0807C17.9306 20.3865 17.7914 20.3169 17.6812 20.2119L17.1818 20.0121C16.1101 19.5584 15.1289 18.9155 14.285 18.1143C14.0853 17.9145 13.7856 17.7147 13.5858 17.5149C12.8464 16.8065 12.2078 15.9999 11.688 15.1176L11.5881 14.9179C11.5013 14.7958 11.4339 14.661 11.3883 14.5183C11.3622 14.3453 11.3975 14.1686 11.4882 14.0189C11.5791 13.869 11.8878 13.5194 12.1874 13.2198C12.4871 12.9201 12.4871 12.7204 12.6868 12.5206C12.7895 12.378 12.8605 12.2151 12.8949 12.0428C12.9294 11.8705 12.9265 11.6928 12.8866 11.5217C12.4211 10.2292 11.8876 8.9622 11.2884 7.726C11.1278 7.47622 10.8776 7.29748 10.5892 7.22656H9.49046C9.29069 7.22656 9.09093 7.32644 8.89113 7.32644L8.79125 7.42633C8.59149 7.52621 8.39172 7.726 8.19193 7.82589C7.99216 7.92577 7.89228 8.22545 7.69252 8.42521C6.99422 9.30763 6.60785 10.3965 6.59375 11.5217C6.60482 12.3132 6.77464 13.0944 7.09316 13.8191L7.19307 14.1187C8.08997 16.0363 9.34432 17.7653 10.8889 19.213L11.2884 19.6126C11.5792 19.8534 11.8467 20.1209 12.0875 20.4116C14.1572 22.2126 16.6154 23.5111 19.2694 24.2074C19.569 24.3072 19.9686 24.3072 20.2683 24.4071H21.2671C21.7892 24.3814 22.2999 24.2452 22.7654 24.0076C23.0101 23.8967 23.2439 23.7629 23.4646 23.608L23.6644 23.4082C23.8642 23.2085 24.064 23.1086 24.2637 22.9088C24.459 22.7349 24.6273 22.5329 24.7632 22.3095C24.955 21.862 25.0898 21.3925 25.1627 20.9111V20.2119C25.073 20.1312 24.972 20.0639 24.8631 20.0121" fill="white"/>
</g>
</svg>
