<svg width="24" height="24" viewBox="0 0 24 24" fill="none" xmlns="http://www.w3.org/2000/svg">
<g id="fireplace">
<mask id="mask0_4401_10564" style="mask-type:alpha" maskUnits="userSpaceOnUse" x="0" y="0" width="24" height="24">
<rect id="Bounding box" width="24" height="24" fill="#D9D9D9"/>
</mask>
<g mask="url(#mask0_4401_10564)">
<path id="fireplace_2" d="M10.6 16.95C10.8167 17.1333 11.0458 17.2625 11.2875 17.3375C11.5292 17.4125 11.7667 17.45 12 17.45C12.4833 17.45 12.9208 17.2958 13.3125 16.9875C13.7042 16.6792 13.9333 16.2333 14 15.65C14.0833 14.8667 13.8417 14.2875 13.275 13.9125C12.7083 13.5375 12.2833 13.05 12 12.45C11.9167 12.6833 11.875 12.9 11.875 13.1C11.875 13.3 11.9 13.5167 11.95 13.75C12 14.0333 12.0583 14.3 12.125 14.55C12.1917 14.8 12.2 15.0667 12.15 15.35C12.0667 15.65 11.8833 15.9583 11.6 16.275C11.3167 16.5917 10.9833 16.8167 10.6 16.95ZM2 22V2H22V22H2ZM12 18C12.8333 18 13.5417 17.7083 14.125 17.125C14.7083 16.5417 15 15.8333 15 15C15 14.6 14.9167 14.2667 14.75 14C14.5833 13.7333 14.35 13.4833 14.05 13.25C13.4167 12.8 12.8875 12.3292 12.4625 11.8375C12.0375 11.3458 11.7 10.85 11.45 10.35C10.7167 10.9333 10.125 11.5958 9.675 12.3375C9.225 13.0792 9 13.95 9 14.95C9 15.5333 9.3 16.1875 9.9 16.9125C10.5 17.6375 11.2 18 12 18ZM4 20H6V18H8.25C7.86667 17.5167 7.5625 17.0083 7.3375 16.475C7.1125 15.9417 7 15.4333 7 14.95C7 14.1833 7.08333 13.4625 7.25 12.7875C7.41667 12.1125 7.72083 11.4583 8.1625 10.825C8.60417 10.1917 9.21667 9.5625 10 8.9375C10.7833 8.3125 11.7833 7.66667 13 7C12.8167 7.73333 12.8958 8.5125 13.2375 9.3375C13.5792 10.1625 14.2167 10.9167 15.15 11.6C15.7 12 16.1458 12.4708 16.4875 13.0125C16.8292 13.5542 17 14.2167 17 15C17 15.5833 16.9083 16.1208 16.725 16.6125C16.5417 17.1042 16.3 17.5667 16 18H18V20H20V4H4V20Z" fill="#14142B"/>
</g>
</g>
</svg>
