<svg width="180" height="46" viewBox="0 0 180 46" fill="none" xmlns="http://www.w3.org/2000/svg">
<g id="Group 278">
<path id="Subtract" fill-rule="evenodd" clip-rule="evenodd" d="M38.5884 43.0588C37.062 44.2289 35.391 45.2198 33.6068 46H14.3932C13.1092 45.4385 11.8838 44.768 10.7288 44H28V42L38.5884 43.0588ZM40.669 41.2669L28 40L7.5352 41.4618C6.90788 40.87 6.31244 40.2449 5.75172 39.5892L28 38V36L42.7725 38.9545C42.1217 39.7703 41.4189 40.5428 40.669 41.2669ZM44.0417 37.2083L28 34L4.09625 37.4148C3.69467 36.8202 3.31904 36.2065 2.97098 35.5756L28 32V30L45.2457 35.1737C44.8772 35.873 44.4751 36.5519 44.0417 37.2083ZM46.0792 33.4237L28 28L1.98587 33.5744C1.72319 32.9713 1.48456 32.3553 1.27122 31.7276L28 26V24L46.7985 31.5194C46.5851 32.1668 46.3449 32.802 46.0792 33.4237ZM47.3129 29.7252L28 22L0.705183 29.7985C0.551236 29.178 0.421432 28.548 0.316826 27.9095L28 20V18L47.6934 27.8467C47.5911 28.4815 47.4639 29.108 47.3129 29.7252ZM47.9211 25.9605L28 16L0.079813 25.9715C0.0269491 25.3213 0 24.6638 0 24L28 14V12L48 24C48 24.6601 47.9734 25.3139 47.9211 25.9605ZM47.9135 21.9481L28 10L0.0851874 21.9635C1.11885 9.66182 11.4311 0 24 0C36.5637 0 46.8726 9.65376 47.9135 21.9481Z" fill="#005BD4"/>
<g id="Real estate BTW">
<path d="M60 38.107H62.4133C62.9607 38.107 63.423 38.1961 63.8002 38.3743C64.1807 38.5526 64.4694 38.8164 64.6664 39.1658C64.8666 39.5116 64.9668 39.9376 64.9668 40.4438C64.9668 40.8004 64.8983 41.1266 64.7615 41.4225C64.628 41.7148 64.4344 41.9643 64.1807 42.1711C63.9304 42.3743 63.6299 42.5258 63.2795 42.6257L63.0091 42.738H60.741L60.731 41.8984H62.4433C62.7905 41.8984 63.0792 41.8342 63.3095 41.7059C63.5398 41.574 63.7134 41.3975 63.8302 41.1765C63.947 40.9554 64.0055 40.7112 64.0055 40.4438C64.0055 40.1444 63.9504 39.8824 63.8402 39.6578C63.7301 39.4332 63.5565 39.2602 63.3195 39.139C63.0859 39.0143 62.7838 38.9519 62.4133 38.9519H60.9663V45.893H60V38.107ZM64.2608 45.893L62.4884 42.3636L63.4948 42.3583L65.2922 45.8289V45.893H64.2608Z" fill="#005BD4"/>
<path d="M73.4109 45.0535V45.893H69.5506V45.0535H73.4109ZM69.7459 38.107V45.893H68.7796V38.107H69.7459ZM72.9002 41.4545V42.2941H69.5506V41.4545H72.9002ZM73.3608 38.107V38.9519H69.5506V38.107H73.3608Z" fill="#005BD4"/>
<path d="M79.7671 38.7968L77.3539 45.893H76.3675L79.1463 38.107H79.7822L79.7671 38.7968ZM81.7899 45.893L79.3716 38.7968L79.3566 38.107H79.9925L82.7813 45.893H81.7899ZM81.6647 43.0107V43.8556H77.5692V43.0107H81.6647Z" fill="#005BD4"/>
<path d="M90.6396 45.0535V45.893H86.9946V45.0535H90.6396ZM87.1849 38.107V45.893H86.2185V38.107H87.1849Z" fill="#005BD4"/>
<path d="M103.843 45.0535V45.893H99.9825V45.0535H103.843ZM100.178 38.107V45.893H99.2115V38.107H100.178ZM103.332 41.4545V42.2941H99.9825V41.4545H103.332ZM103.793 38.107V38.9519H99.9825V38.107H103.793Z" fill="#005BD4"/>
<path d="M111.386 43.9251C111.386 43.7433 111.359 43.5829 111.306 43.4438C111.255 43.3012 111.165 43.1729 111.035 43.0588C110.908 42.9447 110.731 42.836 110.504 42.7326C110.281 42.6292 109.997 42.5241 109.653 42.4171C109.293 42.303 108.967 42.1765 108.677 42.0374C108.387 41.8948 108.138 41.7326 107.931 41.5508C107.724 41.369 107.565 41.1604 107.455 40.9251C107.345 40.6898 107.29 40.4207 107.29 40.1176C107.29 39.8146 107.348 39.5348 107.465 39.2781C107.582 39.0214 107.749 38.7986 107.966 38.6096C108.186 38.4171 108.448 38.2674 108.752 38.1604C109.056 38.0535 109.395 38 109.768 38C110.316 38 110.78 38.1123 111.16 38.3369C111.544 38.5579 111.836 38.8485 112.037 39.2086C112.237 39.5651 112.337 39.9465 112.337 40.3529H111.376C111.376 40.0606 111.317 39.8021 111.2 39.5775C111.084 39.3494 110.907 39.1711 110.67 39.0428C110.433 38.9109 110.132 38.8449 109.768 38.8449C109.425 38.8449 109.141 38.9002 108.917 39.0107C108.694 39.1212 108.527 39.2709 108.417 39.4599C108.31 39.6488 108.256 39.8645 108.256 40.107C108.256 40.2709 108.288 40.4207 108.352 40.5561C108.418 40.6881 108.52 40.8111 108.657 40.9251C108.797 41.0392 108.974 41.1444 109.188 41.2406C109.405 41.3369 109.663 41.4296 109.964 41.5187C110.378 41.6435 110.735 41.7825 111.035 41.9358C111.336 42.0891 111.583 42.262 111.776 42.4545C111.973 42.6435 112.118 42.8592 112.212 43.1016C112.309 43.3405 112.357 43.6114 112.357 43.9144C112.357 44.2317 112.297 44.5187 112.177 44.7754C112.057 45.0321 111.885 45.2513 111.661 45.4332C111.437 45.615 111.169 45.7558 110.855 45.8556C110.545 45.9519 110.197 46 109.814 46C109.476 46 109.144 45.9501 108.817 45.8503C108.493 45.7504 108.198 45.6007 107.931 45.4011C107.667 45.2014 107.455 44.9554 107.295 44.6631C107.138 44.3672 107.06 44.025 107.06 43.6364H108.021C108.021 43.9037 108.069 44.1337 108.166 44.3262C108.263 44.5152 108.395 44.672 108.562 44.7968C108.732 44.9216 108.924 45.0143 109.138 45.0749C109.355 45.1319 109.58 45.1604 109.814 45.1604C110.151 45.1604 110.436 45.1105 110.67 45.0107C110.903 44.9109 111.08 44.7683 111.2 44.5829C111.324 44.3975 111.386 44.1783 111.386 43.9251Z" fill="#005BD4"/>
<path d="M118.743 38.107V45.893H117.792V38.107H118.743ZM121.086 38.107V38.9519H115.454V38.107H121.086Z" fill="#005BD4"/>
<path d="M126.927 38.7968L124.514 45.893H123.527L126.306 38.107H126.942L126.927 38.7968ZM128.95 45.893L126.532 38.7968L126.516 38.107H127.152L129.941 45.893H128.95ZM128.825 43.0107V43.8556H124.729V43.0107H128.825Z" fill="#005BD4"/>
<path d="M135.421 38.107V45.893H134.47V38.107H135.421ZM137.764 38.107V38.9519H132.132V38.107H137.764Z" fill="#005BD4"/>
<path d="M145.938 45.0535V45.893H142.078V45.0535H145.938ZM142.273 38.107V45.893H141.307V38.107H142.273ZM145.427 41.4545V42.2941H142.078V41.4545H145.427ZM145.888 38.107V38.9519H142.078V38.107H145.888Z" fill="#005BD4"/>
<path d="M157.199 42.2513H155.351L155.341 41.4225H157.018C157.296 41.4225 157.538 41.3725 157.744 41.2727C157.951 41.1729 158.112 41.0303 158.225 40.8449C158.342 40.656 158.4 40.4314 158.4 40.1711C158.4 39.8859 158.349 39.6542 158.245 39.4759C158.145 39.2941 157.99 39.1622 157.78 39.0802C157.573 38.9947 157.309 38.9519 156.988 38.9519H155.566V45.893H154.6V38.107H156.988C157.362 38.107 157.696 38.148 157.99 38.2299C158.284 38.3084 158.532 38.4332 158.736 38.6043C158.943 38.7718 159.1 38.9857 159.206 39.246C159.313 39.5062 159.367 39.8182 159.367 40.1818C159.367 40.5027 159.29 40.7932 159.136 41.0535C158.983 41.3102 158.769 41.5205 158.495 41.6845C158.225 41.8485 157.908 41.9537 157.544 42L157.199 42.2513ZM157.154 45.893H154.971L155.516 45.0535H157.154C157.461 45.0535 157.721 44.9964 157.935 44.8824C158.152 44.7683 158.317 44.6078 158.43 44.4011C158.544 44.1907 158.601 43.943 158.601 43.6578C158.601 43.369 158.552 43.1194 158.455 42.9091C158.359 42.6988 158.207 42.5365 158 42.4225C157.793 42.3084 157.526 42.2513 157.199 42.2513H155.822L155.832 41.4225H157.714L157.92 41.7219C158.27 41.754 158.567 41.861 158.811 42.0428C159.055 42.221 159.24 42.4492 159.367 42.7273C159.497 43.0053 159.562 43.3119 159.562 43.6471C159.562 44.1319 159.462 44.5419 159.262 44.877C159.065 45.2086 158.786 45.4617 158.425 45.6364C158.065 45.8075 157.641 45.893 157.154 45.893Z" fill="#005BD4"/>
<path d="M166.003 38.107V45.893H165.052V38.107H166.003ZM168.347 38.107V38.9519H162.714V38.107H168.347Z" fill="#005BD4"/>
<path d="M173.887 43.5401L175.334 38.107H176.035L175.629 40.2193L174.072 45.893H173.376L173.887 43.5401ZM172.39 38.107L173.541 43.4332L173.887 45.893H173.196L171.428 38.107H172.39ZM177.907 43.4278L179.034 38.107H180L178.238 45.893H177.547L177.907 43.4278ZM176.14 38.107L177.547 43.5401L178.057 45.893H177.361L175.859 40.2193L175.449 38.107H176.14Z" fill="#005BD4"/>
</g>
<g id="Caribbean">
<path d="M69.84 26.6667H72.8568C72.7763 27.707 72.4801 28.6297 71.9682 29.4349C71.4563 30.2329 70.7432 30.8599 69.8291 31.316C68.9149 31.772 67.8069 32 66.5052 32C65.5032 32 64.6001 31.829 63.7956 31.487C62.9984 31.1378 62.3147 30.6426 61.7442 30.0013C61.1811 29.3529 60.7496 28.5763 60.4498 27.6713C60.1499 26.7593 60 25.7368 60 24.6039V23.4175C60 22.2846 60.1536 21.2621 60.4607 20.35C60.7679 19.438 61.2067 18.6613 61.7771 18.02C62.3549 17.3716 63.046 16.8729 63.8504 16.5237C64.6622 16.1746 65.5691 16 66.571 16C67.8727 16 68.9734 16.2351 69.8729 16.7054C70.7725 17.1686 71.4709 17.8063 71.9682 18.6186C72.4655 19.4309 72.7653 20.3643 72.8677 21.4188H69.851C69.7925 20.7633 69.6462 20.2075 69.4122 19.7515C69.1855 19.2955 68.8418 18.9499 68.381 18.7148C67.9276 18.4725 67.3243 18.3514 66.571 18.3514C65.9859 18.3514 65.4703 18.4582 65.0242 18.672C64.5854 18.8858 64.2198 19.2064 63.9272 19.6339C63.6347 20.0543 63.4153 20.5816 63.269 21.2158C63.1228 21.8428 63.0496 22.5696 63.0496 23.3961V24.6039C63.0496 25.3948 63.1155 26.1038 63.2471 26.7308C63.3787 27.3578 63.5835 27.8887 63.8614 28.3233C64.1393 28.758 64.4977 29.0893 64.9365 29.3173C65.3753 29.5453 65.8982 29.6593 66.5052 29.6593C67.2438 29.6593 67.8435 29.5453 68.3042 29.3173C68.7723 29.0893 69.127 28.7544 69.3683 28.3126C69.617 27.8709 69.7742 27.3222 69.84 26.6667Z" fill="#005BD4"/>
<path d="M81.5449 18.5865L76.9924 31.7862H73.8002L79.7678 16.2244H81.8082L81.5449 18.5865ZM85.3515 31.7862L80.777 18.5865L80.5028 16.2244H82.5542L88.5547 31.7862H85.3515ZM85.1431 26.004V28.3233H76.5756V26.004H85.1431Z" fill="#005BD4"/>
<path d="M90.2002 16.2244H96.0033C97.2173 16.2244 98.2594 16.4026 99.1297 16.7589C100 17.1151 100.669 17.6424 101.137 18.3407C101.605 19.039 101.839 19.8976 101.839 20.9165C101.839 21.7217 101.693 22.4199 101.4 23.0114C101.108 23.6028 100.695 24.098 100.161 24.497C99.6343 24.896 99.0127 25.2095 98.296 25.4375L97.3526 25.9078H92.2296L92.2077 23.5885H96.0362C96.6578 23.5885 97.1734 23.4816 97.583 23.2679C97.9925 23.0541 98.2997 22.7584 98.5044 22.3808C98.7165 22.0031 98.8226 21.572 98.8226 21.0875C98.8226 20.5674 98.7202 20.1185 98.5154 19.7408C98.3106 19.356 97.9998 19.0603 97.583 18.8537C97.1661 18.6471 96.6396 18.5438 96.0033 18.5438H93.2169V31.7862H90.2002V16.2244ZM99.2175 31.7862L95.5206 24.8176L98.7129 24.8069L102.454 31.6366V31.7862H99.2175Z" fill="#005BD4"/>
<path d="M107.697 16.2244V31.7862H104.681V16.2244H107.697Z" fill="#005BD4"/>
<path d="M117.077 24.8497H112.996L112.974 22.7762H116.473C117.073 22.7762 117.574 22.6943 117.976 22.5304C118.378 22.3665 118.682 22.1278 118.887 21.8143C119.099 21.5008 119.205 21.1196 119.205 20.6707C119.205 20.1719 119.106 19.7658 118.908 19.4522C118.718 19.1387 118.419 18.9107 118.009 18.7682C117.599 18.6186 117.08 18.5438 116.451 18.5438H113.972V31.7862H110.955V16.2244H116.451C117.358 16.2244 118.166 16.31 118.876 16.481C119.592 16.6448 120.199 16.9014 120.697 17.2505C121.194 17.5996 121.571 18.0379 121.826 18.5651C122.09 19.0924 122.221 19.7194 122.221 20.4462C122.221 21.0875 122.068 21.6789 121.761 22.2204C121.461 22.7548 120.996 23.1895 120.367 23.5244C119.746 23.8593 118.956 24.0517 117.998 24.1015L117.077 24.8497ZM116.945 31.7862H112.107L113.369 29.4776H116.945C117.545 29.4776 118.038 29.3814 118.426 29.189C118.821 28.9967 119.113 28.733 119.303 28.3981C119.501 28.0561 119.6 27.6642 119.6 27.2224C119.6 26.7379 119.512 26.3175 119.336 25.9613C119.168 25.605 118.898 25.3307 118.525 25.1383C118.159 24.9459 117.676 24.8497 117.077 24.8497H113.939L113.961 22.7762H117.954L118.645 23.5778C119.567 23.5849 120.316 23.7631 120.894 24.1122C121.479 24.4614 121.911 24.9103 122.189 25.4589C122.466 26.0076 122.605 26.599 122.605 27.2331C122.605 28.2307 122.382 29.0679 121.936 29.7448C121.497 30.4217 120.854 30.9312 120.005 31.2732C119.164 31.6152 118.144 31.7862 116.945 31.7862Z" fill="#005BD4"/>
<path d="M131.337 24.8497H127.257L127.235 22.7762H130.734C131.334 22.7762 131.835 22.6943 132.237 22.5304C132.639 22.3665 132.943 22.1278 133.147 21.8143C133.36 21.5008 133.466 21.1196 133.466 20.6707C133.466 20.1719 133.367 19.7658 133.169 19.4522C132.979 19.1387 132.679 18.9107 132.27 18.7682C131.86 18.6186 131.341 18.5438 130.712 18.5438H128.233V31.7862H125.216V16.2244H130.712C131.619 16.2244 132.427 16.31 133.136 16.481C133.853 16.6448 134.46 16.9014 134.957 17.2505C135.455 17.5996 135.831 18.0379 136.087 18.5651C136.351 19.0924 136.482 19.7194 136.482 20.4462C136.482 21.0875 136.329 21.6789 136.022 22.2204C135.722 22.7548 135.257 23.1895 134.628 23.5244C134.007 23.8593 133.217 24.0517 132.259 24.1015L131.337 24.8497ZM131.206 31.7862H126.368L127.63 29.4776H131.206C131.805 29.4776 132.299 29.3814 132.687 29.189C133.082 28.9967 133.374 28.733 133.564 28.3981C133.762 28.0561 133.861 27.6642 133.861 27.2224C133.861 26.7379 133.773 26.3175 133.597 25.9613C133.429 25.605 133.158 25.3307 132.785 25.1383C132.42 24.9459 131.937 24.8497 131.337 24.8497H128.2L128.222 22.7762H132.215L132.906 23.5778C133.828 23.5849 134.577 23.7631 135.155 24.1122C135.74 24.4614 136.172 24.9103 136.449 25.4589C136.727 26.0076 136.866 26.599 136.866 27.2331C136.866 28.2307 136.643 29.0679 136.197 29.7448C135.758 30.4217 135.115 30.9312 134.266 31.2732C133.425 31.6152 132.405 31.7862 131.206 31.7862Z" fill="#005BD4"/>
<path d="M150.063 29.4776V31.7862H141.572V29.4776H150.063ZM142.494 16.2244V31.7862H139.477V16.2244H142.494ZM148.955 22.648V24.9031H141.572V22.648H148.955ZM150.03 16.2244V18.5438H141.572V16.2244H150.03Z" fill="#005BD4"/>
<path d="M158.51 18.5865L153.957 31.7862H150.765L156.733 16.2244H158.773L158.51 18.5865ZM162.316 31.7862L157.742 18.5865L157.468 16.2244H159.519L165.52 31.7862H162.316ZM162.108 26.004V28.3233H153.541V26.004H162.108Z" fill="#005BD4"/>
<path d="M180 16.2244V31.7862H176.972L170.182 20.9913V31.7862H167.165V16.2244H170.182L176.994 27.0301V16.2244H180Z" fill="#005BD4"/>
</g>
</g>
</svg>
